<?xml version="1.0"?>
<svg xmlns="http://www.w3.org/2000/svg" height="512px" viewBox="0 0 64 64" width="512px" class="hovered-paths"><g><link xmlns="" type="text/css" id="dark-mode" rel="stylesheet" href=""/><style xmlns="" type="text/css" id="dark-mode-custom-style"/><g id="Ai-3" data-name="Ai"><circle cx="19" cy="20" fill="#1e81ce" r="15" data-original="#1E81CE" class="hovered-path active-path" style="fill:#FFFFFF" data-old_color="#1e81ce"/><path d="m60 32-5.18 2-1.82 17h-12.44l-1 11.03-20.56-.03 2.52-22.9a21.1 21.1 0 0 1 -3.79-4.16c.42.04.84.06 1.27.06a15 15 0 0 0 4.23-29.39 20.982 20.982 0 0 1 32.74 16.78l1.03 3.61z" fill="#ffeb99" data-original="#FFEB99" class="" style="fill:#F1C40F" data-old_color="#ffeb99"/><g fill="#ffde17"><circle cx="19" cy="10" r="2" data-original="#FFDE17" class="" style="fill:#F1C40F" data-old_color="#FFDE17"/><circle cx="19" cy="26" r="2" data-original="#FFDE17" class="" style="fill:#F1C40F" data-old_color="#FFDE17"/><circle cx="11" cy="26" r="2" data-original="#FFDE17" class="" style="fill:#F1C40F" data-old_color="#FFDE17"/><circle cx="27" cy="26" r="2" data-original="#FFDE17" class="" style="fill:#F1C40F" data-old_color="#FFDE17"/></g><path d="m60.9 31.553-2.958-5.917-.972-3.4a21.963 21.963 0 0 0 -33.9-17.7 15.821 15.821 0 0 0 -4.07-.536 15.988 15.988 0 0 0 -1.823 31.874 22.073 22.073 0 0 0 3.291 3.64l-2.462 22.377a1 1 0 0 0 .994 1.109l20.56.03a1 1 0 0 0 1-.91l.913-10.12h11.527a1 1 0 0 0 .994-.894l1.756-16.393 4.61-1.78a1 1 0 0 0 .535-1.38zm-41.9 2.447c-.4 0-.786-.019-1.175-.056h-.007-.005a14 14 0 0 1 1.187-27.944 13.779 13.779 0 0 1 3.944.568h.005a14 14 0 0 1 -3.949 27.432zm35.46-.933a1 1 0 0 0 -.634.827l-1.726 16.106h-11.54a1 1 0 0 0 -1 .91l-.917 10.118-18.527-.028 2.4-21.792a1 1 0 0 0 -.351-.875 20.21 20.21 0 0 1 -2.373-2.353 16 16 0 0 0 5.726-30.591 19.985 19.985 0 0 1 29.452 17.03 1.025 1.025 0 0 0 .038.246l1.03 3.609a1.127 1.127 0 0 0 .067.173l2.508 5.016z" data-original="#000000" class=""/><path d="m30 26a3 3 0 0 0 -2.035-2.827.9.9 0 0 0 .035-.173v-2a1 1 0 0 0 -.726-.961l-7-2a.941.941 0 0 0 -.274-.022v-5.017a.9.9 0 0 0 -.035-.173 3 3 0 1 0 -1.93 0 .9.9 0 0 0 -.035.173v3.307l-7.352 2.756a1 1 0 0 0 -.648.937v3a.9.9 0 0 0 .035.173 3 3 0 1 0 1.93 0 .9.9 0 0 0 .035-.173v-2.307l6-2.25v4.557a.9.9 0 0 0 .035.173 3 3 0 1 0 1.93 0 .9.9 0 0 0 .035-.173v-2.96l6 1.714v1.246a.9.9 0 0 0 .035.173 2.994 2.994 0 1 0 3.965 2.827zm-19 1a1 1 0 1 1 1-1 1 1 0 0 1 -1 1zm8-18a1 1 0 1 1 -1 1 1 1 0 0 1 1-1zm0 18a1 1 0 1 1 1-1 1 1 0 0 1 -1 1zm8 0a1 1 0 1 1 1-1 1 1 0 0 1 -1 1z" data-original="#000000" class=""/><path d="m24 17a1 1 0 0 0 1-1v-2a1 1 0 0 0 -2 0v2a1 1 0 0 0 1 1z" data-original="#000000" class=""/></g></g> </svg>
