<?xml version="1.0"?>
<svg xmlns="http://www.w3.org/2000/svg" id="Layer_35" enable-background="new 0 0 64 64" height="512px" viewBox="0 0 64 64" width="512px" class=""><g><link xmlns="" type="text/css" id="dark-mode" rel="stylesheet" href=""/><style xmlns="" type="text/css" id="dark-mode-custom-style"/><path d="m57.954 40.502c1.251-1.101 2.046-2.708 2.046-4.502 0-3.309-2.691-6-6-6s-6 2.691-6 6c0 2.243 1.239 4.2 3.067 5.229-1.982 1.272-3.372 3.418-3.578 5.899l-.402 4.872h-6.587c-1.93 0-3.5 1.57-3.5 3.5s1.57 3.5 3.5 3.5h5.5v4h17v-15.233c0-3.324-2.104-6.159-5.046-7.265zm-3.954-8.502c2.206 0 4 1.794 4 4s-1.794 4-4 4-4-1.794-4-4 1.794-4 4-4zm7 29h-13v-2h1.239c2.063 0 3.815-1.611 3.986-3.668l.771-9.249-1.992-.166-.771 9.249c-.086 1.028-.962 1.834-1.994 1.834h-8.739c-.827 0-1.5-.673-1.5-1.5s.673-1.5 1.5-1.5h6.587c1.041 0 1.897-.782 1.993-1.827l.402-4.88c.247-2.968 2.772-5.293 5.749-5.293 3.181 0 5.769 2.587 5.769 5.767z" data-original="#000000" class=""/><path d="m23.5 52-6.586.009-.404-4.882c-.206-2.48-1.595-4.626-3.577-5.898 1.828-1.029 3.067-2.986 3.067-5.229 0-3.309-2.691-6-6-6s-6 2.691-6 6c0 1.794.795 3.401 2.046 4.502-2.942 1.106-5.046 3.941-5.046 7.265v15.233h17v-4h5.5c1.93 0 3.5-1.57 3.5-3.5s-1.57-3.5-3.5-3.5zm-13.5-20c2.206 0 4 1.794 4 4s-1.794 4-4 4-4-1.794-4-4 1.794-4 4-4zm13.5 25h-8.739c-1.032 0-1.908-.806-1.994-1.834l-.771-9.249-1.992.166.771 9.249c.17 2.057 1.922 3.668 3.986 3.668h1.239v2h-13v-13.233c0-3.18 2.588-5.767 5.769-5.767 2.978 0 5.503 2.325 5.748 5.292l.404 4.89c.095 1.036.951 1.818 1.992 1.818h6.587c.827 0 1.5.673 1.5 1.5s-.673 1.5-1.5 1.5z" data-original="#000000" class=""/><path d="m50 27c-2.467 0-4.876-.704-6.967-2.036l1.074-1.688c1.77 1.128 3.808 1.724 5.893 1.724 6.065 0 11-4.935 11-11s-4.935-11-11-11-11 4.935-11 11c0 2.085.596 4.123 1.724 5.893l-1.688 1.074c-1.332-2.091-2.036-4.5-2.036-6.967 0-7.168 5.832-13 13-13s13 5.832 13 13-5.832 13-13 13z" data-original="#000000" class=""/><path d="m14 27c-7.168 0-13-5.832-13-13s5.832-13 13-13 13 5.832 13 13c0 2.467-.704 4.876-2.036 6.967l-1.688-1.074c1.128-1.77 1.724-3.808 1.724-5.893 0-6.065-4.935-11-11-11s-11 4.935-11 11 4.935 11 11 11c2.085 0 4.123-.596 5.893-1.724l1.074 1.688c-2.091 1.332-4.5 2.036-6.967 2.036z" data-original="#000000" class=""/><path d="m50 13c-1.103 0-2-.897-2-2v-2h2c1.103 0 2 .897 2 2h2c0-1.859-1.279-3.411-3-3.858v-2.142h-2v2h-3v4c0 2.206 1.794 4 4 4 1.103 0 2 .897 2 2v2h-2c-1.103 0-2-.897-2-2h-2c0 1.859 1.279 3.411 3 3.858v2.142h2v-2h3v-4c0-2.206-1.794-4-4-4z" data-original="#000000" class=""/><path d="m10 12h8v2h-8z" fill="#f0bc5e" data-original="#F0BC5E" class="active-path" style="fill:#F1C40F" data-old_color="#f0bc5e"/><path d="m9 12h2v2h-2z" data-original="#000000" class=""/><path d="m13 12h2v2h-2z" data-original="#000000" class=""/><path d="m17 12h2v2h-2z" data-original="#000000" class=""/><path d="m17 20.618-5.236-2.618h-3.764c-1.654 0-3-1.346-3-3v-4c0-1.654 1.346-3 3-3h12c1.654 0 3 1.346 3 3v4c0 1.654-1.346 3-3 3h-3zm-9-10.618c-.552 0-1 .448-1 1v4c0 .552.448 1 1 1h4.236l2.764 1.382v-1.382h5c.552 0 1-.448 1-1v-4c0-.552-.448-1-1-1z" data-original="#000000" class=""/><path d="m32 47c-8.271 0-15-6.729-15-15s6.729-15 15-15 15 6.729 15 15-6.729 15-15 15z" fill="#f0bc5e" data-original="#F0BC5E" class="active-path" style="fill:#F1C40F" data-old_color="#f0bc5e"/><path d="m39 37v-14h-6v4h-4v4h-4v6h-2v2h18v-2zm-2-12v12h-2v-12zm-4 4v8h-2v-8zm-6 4h2v4h-2z" data-original="#000000" class=""/><path d="m57 13h2v2h-2z" data-original="#000000" class=""/><path d="m41 13h2v2h-2z" data-original="#000000" class=""/></g> </svg>
