<?xml version="1.0"?>
<svg xmlns="http://www.w3.org/2000/svg" id="Filled_expand" height="512px" viewBox="0 0 512 512" width="512px" data-name="Filled expand" class=""><g><link xmlns="" type="text/css" id="dark-mode" rel="stylesheet" href=""/><style xmlns="" type="text/css" id="dark-mode-custom-style"/><g><g><path d="m40 432v-262a10 10 0 0 1 10-10h412a10 10 0 0 1 10 10v262z" fill="#ecfbf9" data-original="#ECFBF9" class=""/><path d="m80 40h352v368h-352z" fill="#fffdfa" data-original="#FFFDFA" class=""/><path d="m120 120h272v64h-272z" fill="#f29a49" data-original="#F29A49" class=""/><path d="m160 192h-40a8 8 0 0 1 -8-8v-64a8 8 0 0 1 8-8h272a8 8 0 0 1 8 8v64h-16v-56h-256v48h32z" data-original="#000000" class=""/><path d="m144 144h24v16h-24z" data-original="#000000" class=""/><path d="m184 144h16v16h-16z" data-original="#000000" class=""/></g><g><g><path d="m480 288h-16v-118a2 2 0 0 0 -2-2h-6v-16h6a18.021 18.021 0 0 1 18 18z" data-original="#000000" class=""/><path d="m468 472h-424a20 20 0 0 1 -20-20v-20h152l16 8h128l16-8h152v20a20 20 0 0 1 -20 20z" fill="#57cee6" data-original="#57CEE6" class="active-path" style="fill:#FFFFFF" data-old_color="#57cee6"/><path d="m488 424h-8v-120h-16v136h16v12a12.013 12.013 0 0 1 -12 12h-424a12.013 12.013 0 0 1 -12-12v-12h142.111l14.311 7.155a7.994 7.994 0 0 0 3.578.845h128a7.994 7.994 0 0 0 3.578-.845l14.311-7.155h38.111v-16h-40a7.994 7.994 0 0 0 -3.578.845l-14.311 7.155h-124.222l-14.311-7.155a7.994 7.994 0 0 0 -3.578-.845h-128v-254a2 2 0 0 1 2-2h6v-16h-6a18.021 18.021 0 0 0 -18 18v254h-8a8 8 0 0 0 -8 8v20a28.032 28.032 0 0 0 28 28h424a28.032 28.032 0 0 0 28-28v-20a8 8 0 0 0 -8-8z" data-original="#000000" class=""/></g><g><g><path d="m72 128h16v280h-16z" data-original="#000000" class=""/><path d="m80 40h352v48h-352z" fill="#fac850" data-original="#FAC850" class="" data-old_color="#fac850" style="fill:#F1C40F"/><path d="m432 32h-352a8 8 0 0 0 -8 8v72h16v-16h336v256h16v-312a8 8 0 0 0 -8-8zm-344 48v-32h336v32z" data-original="#000000" class=""/><path d="m392 56h16v16h-16z" data-original="#000000" class=""/><path d="m168 56h16v16h-16z" data-original="#000000" class=""/><path d="m104 56h16v16h-16z" data-original="#000000" class=""/><path d="m136 56h16v16h-16z" data-original="#000000" class=""/></g><g><path d="m104 360h48v16h-48z" data-original="#000000" class=""/><path d="m104 392h24v16h-24z" data-original="#000000" class=""/><path d="m144 392h48v16h-48z" data-original="#000000" class=""/></g></g></g><g><path d="m444.049 432.971a24 24 0 0 1 -33.941 0l-39.03-39.03-48-18.169 64-67.252 17.941 51.48 39.03 39.029a24 24 0 0 1 0 33.942z" fill="#f29a49" data-original="#F29A49" class=""/><circle cx="280" cy="268.922" fill="#fac850" r="120" data-original="#FAC850" class="" data-old_color="#fac850" style="fill:#F1C40F"/><circle cx="280" cy="268.922" fill="#fffdfa" r="91.078" data-original="#FFFDFA" class=""/><path d="m280 367.954a99.06 99.06 0 1 1 70.06-169.091 99.033 99.033 0 0 1 -70.06 169.091zm0-182.072a83.04 83.04 0 1 0 58.745 24.294 82.819 82.819 0 0 0 -58.745-24.294z" data-original="#000000" class=""/><path d="m316.117 232.8a51.075 51.075 0 0 0 -72.234 0l-11.315-11.31a67.077 67.077 0 0 1 94.864 0z" data-original="#000000" class=""/><path d="m329.847 257.741a50.773 50.773 0 0 0 -5.289-13.823l13.949-7.836a66.754 66.754 0 0 1 6.957 18.177z" data-original="#000000" class=""/></g></g><path d="m449.706 393.373-37.734-37.735-13.372-38.378a127.779 127.779 0 1 0 -68.743 69.63l36.785 13.924 37.813 37.814a32 32 0 0 0 45.255-45.255zm-248.9-45.255a112 112 0 1 1 79.194 32.804 111.266 111.266 0 0 1 -79.195-32.804zm237.588 79.195a16.019 16.019 0 0 1 -22.628 0l-39.03-39.03a7.979 7.979 0 0 0 -2.825-1.825l-25.151-9.521a129.864 129.864 0 0 0 39.74-40.022l8.963 25.718a8 8 0 0 0 1.9 3.024l39.03 39.029a16.019 16.019 0 0 1 0 22.627z" data-original="#000000" class=""/></g> </svg>
